<?xml version="1.0" encoding="UTF-8" standalone="no"?>
<!DOCTYPE svg PUBLIC "-//W3C//DTD SVG 1.1//EN"
 "http://www.w3.org/Graphics/SVG/1.1/DTD/svg11.dtd">
<!-- Generated by graphviz version 2.40.1 (20161225.0304)
 -->
<!-- Title: G Pages: 1 -->
<svg width="258pt" height="332pt"
 viewBox="0.00 0.00 258.43 332.00" xmlns="http://www.w3.org/2000/svg" xmlns:xlink="http://www.w3.org/1999/xlink">
<g id="graph0" class="graph" transform="scale(1 1) rotate(0) translate(4 328)">
<title>G</title>
<polygon fill="#ffffff" stroke="transparent" points="-4,4 -4,-328 254.4316,-328 254.4316,4 -4,4"/>
<!-- N1 -->
<g id="node1" class="node">
<title>N1</title>
<polygon fill="none" stroke="#000000" points="215.9474,-324 34.4842,-324 34.4842,-288 215.9474,-288 215.9474,-324"/>
<text text-anchor="middle" x="125.2158" y="-301.8" font-family="Times,serif" font-size="14.00" fill="#000000">point For every train_dataset:</text>
</g>
<!-- N2 -->
<g id="node2" class="node">
<title>N2</title>
<polygon fill="none" stroke="#000000" points="218.7369,-252 31.6947,-252 31.6947,-216 218.7369,-216 218.7369,-252"/>
<text text-anchor="middle" x="125.2158" y="-229.8" font-family="Times,serif" font-size="14.00" fill="#000000">distance = ||new_point &#45; point||</text>
</g>
<!-- N1&#45;&gt;N2 -->
<g id="edge1" class="edge">
<title>N1&#45;&gt;N2</title>
<path fill="none" stroke="#000000" d="M125.2158,-287.8314C125.2158,-280.131 125.2158,-270.9743 125.2158,-262.4166"/>
<polygon fill="#000000" stroke="#000000" points="128.7159,-262.4132 125.2158,-252.4133 121.7159,-262.4133 128.7159,-262.4132"/>
</g>
<!-- N3 -->
<g id="node3" class="node">
<title>N3</title>
<polygon fill="none" stroke="#000000" points="218.4163,-180 32.0154,-180 32.0154,-144 218.4163,-144 218.4163,-180"/>
<text text-anchor="middle" x="125.2158" y="-157.8" font-family="Times,serif" font-size="14.00" fill="#000000">find k items of lowest distance</text>
</g>
<!-- N2&#45;&gt;N3 -->
<g id="edge2" class="edge">
<title>N2&#45;&gt;N3</title>
<path fill="none" stroke="#000000" d="M125.2158,-215.8314C125.2158,-208.131 125.2158,-198.9743 125.2158,-190.4166"/>
<polygon fill="#000000" stroke="#000000" points="128.7159,-190.4132 125.2158,-180.4133 121.7159,-190.4133 128.7159,-190.4132"/>
</g>
<!-- N4 -->
<g id="node4" class="node">
<title>N4</title>
<polygon fill="none" stroke="#000000" points="250.6478,-108 -.2162,-108 -.2162,-72 250.6478,-72 250.6478,-108"/>
<text text-anchor="middle" x="125.2158" y="-85.8" font-family="Times,serif" font-size="14.00" fill="#000000">select label of majority class from k items</text>
</g>
<!-- N3&#45;&gt;N4 -->
<g id="edge3" class="edge">
<title>N3&#45;&gt;N4</title>
<path fill="none" stroke="#000000" d="M125.2158,-143.8314C125.2158,-136.131 125.2158,-126.9743 125.2158,-118.4166"/>
<polygon fill="#000000" stroke="#000000" points="128.7159,-118.4132 125.2158,-108.4133 121.7159,-118.4133 128.7159,-118.4132"/>
</g>
<!-- N5 -->
<g id="node5" class="node">
<title>N5</title>
<polygon fill="none" stroke="#000000" points="179.9028,-36 70.5289,-36 70.5289,0 179.9028,0 179.9028,-36"/>
<text text-anchor="middle" x="125.2158" y="-13.8" font-family="Times,serif" font-size="14.00" fill="#000000">return prediction</text>
</g>
<!-- N4&#45;&gt;N5 -->
<g id="edge4" class="edge">
<title>N4&#45;&gt;N5</title>
<path fill="none" stroke="#000000" d="M125.2158,-71.8314C125.2158,-64.131 125.2158,-54.9743 125.2158,-46.4166"/>
<polygon fill="#000000" stroke="#000000" points="128.7159,-46.4132 125.2158,-36.4133 121.7159,-46.4133 128.7159,-46.4132"/>
</g>
</g>
</svg>
